# xmcd
# Track frame offsets:
# 150
# 12587
# 25277
# 38452
# 49902
# 61262
# 73820
# 84917
# 98167
# 108417
# 118677
# 130617
# 142037
# 152480
# 167455
# 180792
# 193182
# 204795
# 217262
# 232562
# 245550
#
# Disc length: 3435 seconds
# Revision: 0
# Processed by: cddbd v1.4PL0 Copyright (c) Steve Scherf et al.
# Submitted via: VisiTrax 2.9.5.180 - For more info visit www.synapsa.com
#
DISCID=120d6915
DTITLE=Eddy Arnold - The Tennessee Plowboy and his Guitar vol.5
DYEAR=1998
DGENRE=
TTITLE0=Tie me to your apron strings
TTITLE1=Behind the clouds
TTITLE2=A million miles from your heart
TTITLE3=At the close of a long, long day
TTITLE4=C-H-R-I-S-T-M-A-S
TTITLE5=If I never get to heaven
TTITLE6=The lovebug itch
TTITLE7=White christmas
TTITLE8=Santa Claus is comin' to town
TTITLE9=There's been a change in me
TTITLE10=Precious little baby
TTITLE11=Through a stranger's eyes
TTITLE12=Open thy merciful arms
TTITLE13=Jesus and the atheist
TTITLE14=Behind the clouds
TTITLE15=Precious little baby
TTITLE16=Kentucky waltz
TTITLE17=Something old, something new. something borrowed, something blue
TTITLE18=Jesus and the atheist
TTITLE19=May the good Lord bless and keep you
TTITLE20=I'm writing a letter to the lord
EXTD=
EXTT0=
EXTT1=
EXTT2=
EXTT3=
EXTT4=
EXTT5=
EXTT6=
EXTT7=
EXTT8=
EXTT9=
EXTT10=
EXTT11=
EXTT12=
EXTT13=
EXTT14=
EXTT15=
EXTT16=
EXTT17=
EXTT18=
EXTT19=
EXTT20=
PLAYORDER=
